<svg width="256" height="256" viewBox="0 0 256 256" xmlns="http://www.w3.org/2000/svg" role="img" aria-label="Medicare App logo">
  <defs>
    <linearGradient id="grad" x1="0%" y1="0%" x2="100%" y2="100%">
      <stop offset="0%" stop-color="#0f766e" />
      <stop offset="100%" stop-color="#0ea5e9" />
    </linearGradient>
  </defs>
  <rect width="256" height="256" rx="40" ry="40" fill="#ffffff" stroke="#0f766e" stroke-width="10" />
  <path d="M136 68c0-20-24-24-32-4l-1 10c-7 20 6 32 12 44 4 8 6 19 6 32 0 25-15 40-32 40s-32-15-32-40c0-50 44-86 64-86s32 4 32 24c0 16-12 28-28 28s-28-12-28-28" fill="none" stroke="url(#grad)" stroke-width="16" stroke-linecap="round" />
  <path d="M136 132h24c28 0 40 20 40 40s-20 40-40 40-40-20-40-40v-24" fill="none" stroke="url(#grad)" stroke-width="16" stroke-linecap="round" />
  <path d="M136 152h40" fill="none" stroke="#0f766e" stroke-width="16" stroke-linecap="round" />
  <path d="M136 184h40" fill="none" stroke="#0f766e" stroke-width="16" stroke-linecap="round" />
  <circle cx="86" cy="190" r="18" fill="#0f766e" />
</svg>
